<svg width="30" height="19" viewBox="0 0 30 19" fill="none"
   xmlns="http://www.w3.org/2000/svg">
   <path d="M15.0275 1.54455e-05C19.0357 0.00457391 22.675 1.00491 25.3618 2.63109L27.5219 1.26302C28.4364 0.683823 30 1.09401 30 1.91308V7.0484C30 7.55615 29.3501 7.96775 28.5484 7.96775H20.44C19.1467 7.96775 18.4991 6.97749 19.4135 6.3983L21.9387 4.79901C20.0719 3.69199 17.6564 3.07878 15.0901 3.06476C9.50153 3.03419 4.79075 5.89855 4.83907 9.55548C4.88492 13.0245 9.32565 15.9355 15 15.9355C17.4875 15.9355 19.8385 15.3732 21.6913 14.3436C21.9782 14.1842 22.4115 14.1939 22.6813 14.3648L25.0802 15.8841C25.3749 16.0707 25.3603 16.375 25.0511 16.5519C22.3913 18.0735 18.8665 19 15 19C6.71577 19 6.13779e-05 14.7467 8.9407e-07 9.50009C-5.95898e-05 4.25942 6.75278 -0.00936963 15.0275 1.54455e-05Z" fill="#003451" />
</svg>