<svg width="33" height="34" viewBox="0 0 33 34" fill="none"
   xmlns="http://www.w3.org/2000/svg">
   <g clip-path="url(#clip0_528_242)">
      <path d="M9.59655 17.014C9.55232 17.0538 9.52634 17.1117 9.52634 17.1732V23.3597C9.52634 23.4501 9.58249 23.5297 9.66538 23.5587L13.5593 24.8962C13.5804 24.9034 13.6022 24.9071 13.6239 24.9071C13.666 24.9071 13.7082 24.8933 13.7426 24.8673C13.796 24.8275 13.8276 24.7646 13.8276 24.6973V17.7607C13.8276 17.6565 13.7539 17.5682 13.6534 17.553L9.75946 16.9656C9.70118 16.9562 9.64152 16.9743 9.59655 17.014Z" fill="#003451" />
      <path d="M7.59411 16.6422L4.84953 16.2299C4.79125 16.2205 4.73153 16.2393 4.68731 16.2783C4.64239 16.3181 4.6171 16.376 4.6171 16.4374V21.6727C4.6171 21.7632 4.67325 21.8428 4.75614 21.8717L7.50073 22.8142C7.52184 22.8215 7.54358 22.8251 7.56463 22.8251C7.60673 22.8251 7.6489 22.8114 7.684 22.7853C7.73666 22.7455 7.76827 22.6826 7.76827 22.6153V16.8491C7.76821 16.7449 7.6945 16.6567 7.59411 16.6422Z" fill="#003451" />
      <path d="M32.8789 12.0371L24.3608 0.286211C24.3608 0.286211 24.2794 0.153825 24.0912 0.0764024C23.903 -0.00172934 23.7197 0.0532347 23.7197 0.0532347L10.3359 3.58707V2.3674C10.3359 2.07443 10.14 1.82054 9.8634 1.75399L8.74488 1.4878C8.74488 1.4878 8.67255 1.46753 8.57073 1.47332C8.46897 1.47911 8.40363 1.5073 8.40363 1.5073L6.38641 2.2437C6.14279 2.33265 5.97988 2.56994 5.97988 2.83613V4.73795L3.86158 5.29639C3.69093 5.34196 3.54769 5.46058 3.46767 5.62263L0.0659936 12.5688C-0.0288273 12.7619 -0.0210833 12.9912 0.0870457 13.1765C0.195175 13.3616 0.388258 13.4767 0.598206 13.4818L2.21027 13.5165V25.8425C2.21027 26.0776 2.33665 26.2924 2.53885 26.4002L16.5159 33.8938C16.5159 33.8938 16.6374 33.9633 16.7968 33.9655C16.9561 33.9669 17.0791 33.8938 17.0791 33.8938L30.6223 26.6266C30.8239 26.5181 30.9502 26.304 30.9509 26.0688L30.9748 12.9427L32.3467 13.0404C32.3467 13.0404 32.7055 13.0823 32.9077 12.7438C33.131 12.3735 32.8789 12.0371 32.8789 12.0371ZM16.1881 32.2995L3.43193 25.4605V13.5425L13.612 13.7631C13.612 13.7631 13.612 13.7631 13.6127 13.7631H13.6141L16.1887 13.8109V32.2995L16.1881 32.2995ZM30.4082 11.6421C30.239 11.6298 30.0733 11.6905 29.9497 11.8092C29.8261 11.9278 29.7559 12.0949 29.7552 12.2686L29.7313 25.6869L26.2355 27.5635V15.934C26.2355 15.8747 26.2116 15.819 26.1695 15.7792C26.1274 15.7393 26.0719 15.7199 26.0151 15.7249L22.6519 16.0128C22.5466 16.0222 22.4651 16.1134 22.4651 16.2219V29.5852L17.4084 32.2988V13.1931C17.4084 12.8495 17.1416 12.5702 16.8088 12.5637L14.9215 12.5282L23.8412 1.67296L31.104 11.6913L30.4082 11.6421Z" fill="#003451" />
   </g>
   <defs>
      <clipPath id="clip0_528_242">
         <rect width="33" height="34" fill="white" />
      </clipPath>
   </defs>
</svg>