<svg width="30" height="22" viewBox="0 0 30 22" fill="none"
   xmlns="http://www.w3.org/2000/svg">
   <path d="M14.9725 1.78842e-05C10.9643 0.00529611 7.32502 1.16358 4.63821 3.04653L2.47808 1.46244C1.56357 0.791796 0 1.26675 0 2.21514V8.1613C0 8.74922 0.649899 9.22582 1.45161 9.22582H9.56002C10.8533 9.22582 11.5009 8.0792 10.5865 7.40856L8.06129 5.55674C9.92806 4.27493 12.3436 3.5649 14.9099 3.54867C20.4985 3.51327 25.2093 6.8299 25.1609 11.0642C25.1151 15.081 20.6744 18.4516 15 18.4516C12.5125 18.4516 10.1615 17.8006 8.30867 16.6084C8.02179 16.4238 7.58855 16.4351 7.31867 16.6329L4.91976 18.3921C4.62508 18.6082 4.63966 18.9605 4.94891 19.1654C7.60875 20.9272 11.1335 22 15 22C23.2842 22 29.9999 17.0752 30 11.0001C30.0001 4.93196 23.2472 -0.010849 14.9725 1.78842e-05Z" fill="#003451" />
</svg>