<svg width="26" height="25" viewBox="0 0 26 25" fill="none" xmlns="http://www.w3.org/2000/svg">
<path d="M25.1094 12.7679C25.1094 19.4572 19.6874 24.8772 13 24.8772C6.31265 24.8772 0.890625 19.4572 0.890625 12.7679C0.890625 6.08245 6.31265 0.658478 13 0.658478C19.6874 0.658478 25.1094 6.08245 25.1094 12.7679ZM13.325 4.66238C10.664 4.66238 8.9668 5.78333 7.63408 7.77557C7.46143 8.03367 7.51919 8.38177 7.76665 8.56942L9.46094 9.85408C9.71509 10.0468 10.0772 10.001 10.2747 9.75047C11.1469 8.64412 11.745 8.00257 13.0727 8.00257C14.0702 8.00257 15.304 8.64456 15.304 9.61185C15.304 10.3431 14.7003 10.7186 13.7154 11.2708C12.5668 11.9147 11.0469 12.7161 11.0469 14.721V14.9163C11.0469 15.2399 11.3092 15.5022 11.6328 15.5022H14.3672C14.6908 15.5022 14.9531 15.2399 14.9531 14.9163V14.8512C14.9531 13.4615 19.0149 13.4036 19.0149 9.64285C19.0149 6.81072 16.0772 4.66238 13.325 4.66238ZM13 16.7718C11.7615 16.7718 10.7539 17.7793 10.7539 19.0179C10.7539 20.2563 11.7615 21.2639 13 21.2639C14.2385 21.2639 15.2461 20.2563 15.2461 19.0179C15.2461 17.7793 14.2385 16.7718 13 16.7718Z" fill="#003045"/>
</svg>
