<svg width="26" height="26" viewBox="0 0 26 26"
   xmlns="http://www.w3.org/2000/svg">
   <path d="M12.9761 2.11359e-05C9.50237 0.00625903 6.34835 1.37514 4.01978 3.60044L2.14767 1.72834C1.35509 0.935758 0 1.49706 0 2.61789V9.64517C0 10.34 0.563246 10.9032 1.25806 10.9032H8.28535C9.40618 10.9032 9.96749 9.54815 9.17496 8.75557L6.98645 6.56706C8.60432 5.05219 10.6978 4.21307 12.9219 4.19388C17.7653 4.15205 21.848 8.0717 21.8061 13.0759C21.7664 17.8231 17.9178 21.8065 13 21.8065C10.8441 21.8065 8.80661 21.037 7.20085 19.6281C6.95222 19.41 6.57674 19.4233 6.34285 19.6571L4.26379 21.7362C4.0084 21.9915 4.02104 22.4079 4.28906 22.65C6.59425 24.7321 9.64904 26 13 26C20.1797 26 25.9999 20.1797 26 13.0001C26.0001 5.82868 20.1476 -0.0128216 12.9761 2.11359e-05Z" />
</svg>